Aka Der rote Baron
 
http://www.imdb.com/title/tt0365675/ 

Source: The.Red.Baron.2008.720p.BluRay.x264-WiKi Thanks!

Subs: Danish, Dutch, French, Romanian, Spanish, Swedish and Turkish.

Sample and Screens included.

General
Complete name                            : The Red Baron-720p MP4 AAC x264 BRRip 2008-CC.mp4
Format                                   : MPEG-4
Format profile                           : Base Media
Codec ID                                 : isom
File size                                : 2.89 GiB
Duration                                 : 1h 45mn
Overall bit rate mode                    : Variable
Overall bit rate                         : 3 909 Kbps
Encoded date                             : UTC 2013-02-26 20:32:09
 
Video
ID                                       : 1
Format                                   : AVC
Format/Info                              : Advanced Video Codec
Format profile                           : High@L4.1
Format settings, CABAC                   : Yes
Format settings, ReFrames                : 5 frames
Codec ID                                 : avc1
Codec ID/Info                            : Advanced Video Coding
Duration                                 : 1h 45mn
Source duration                          : 1h 45mn
Bit rate                                 : 3 559 Kbps
Maximum bit rate                         : 30.8 Mbps
Width                                    : 1 280 pixels
Height                                   : 544 pixels
Display aspect ratio                     : 2.35:1
Frame rate mode                          : Variable
Frame rate                               : 23.976 fps
Minimum frame rate                       : 15.873 fps
Maximum frame rate                       : 24.390 fps
Color space                              : YUV
Chroma subsampling                       : 4:2:0
Bit depth                                : 8 bits
Scan type                                : Progressive
Bits/(Pixel*Frame)                       : 0.213
Stream size                              : 2.60 GiB (90%)
Source stream size                       : 2.60 GiB (90%)
Writing library                          : x264 core 112

Audio
ID                                       : 2
Format                                   : AAC
Format/Info                              : Advanced Audio Codec
Format profile                           : LC
Codec ID                                 : 40
Duration                                 : 1h 45mn
Bit rate mode                            : Variable
Bit rate                                 : 384 Kbps
Maximum bit rate                         : 538 Kbps
Channel(s)                               : 6 channels
Channel positions                        : Front: L C R, Side: L R, LFE
Sampling rate                            : 48.0 KHz
Compression mode                         : Lossy
Delay relative to video                  : 83ms
Stream size                              : 291 MiB (10%)
Language                                 : English

Enjoy...

Requested by SammyR

Coming soon: Willow, Army of Shadows, Tetro, The Insider and more.